<?xml version="1.0" encoding="UTF-8"?>
<svg xmlns="http://www.w3.org/2000/svg" xmlns:xlink="http://www.w3.org/1999/xlink" width="720pt" height="730pt" viewBox="0 0 720 730" version="1.1">
<g id="surface28">
<path style="fill:none;stroke-width:1.432;stroke-linecap:square;stroke-linejoin:miter;stroke:rgb(33.332825%,33.332825%,33.332825%);stroke-opacity:1;stroke-miterlimit:3.25;" d="M 198.089844 672.910156 L 849 672.910156 " transform="matrix(1,0,0,1,-132,-10)"/>
<path style="fill:none;stroke-width:1.432;stroke-linecap:square;stroke-linejoin:miter;stroke:rgb(33.332825%,33.332825%,33.332825%);stroke-opacity:1;stroke-miterlimit:3.25;" d="M 198.089844 640.363281 L 816.453125 672.910156 " transform="matrix(1,0,0,1,-132,-10)"/>
<path style="fill:none;stroke-width:1.432;stroke-linecap:square;stroke-linejoin:miter;stroke:rgb(33.332825%,33.332825%,33.332825%);stroke-opacity:1;stroke-miterlimit:3.25;" d="M 198.089844 607.816406 L 783.910156 672.910156 " transform="matrix(1,0,0,1,-132,-10)"/>
<path style="fill:none;stroke-width:1.432;stroke-linecap:square;stroke-linejoin:miter;stroke:rgb(33.332825%,33.332825%,33.332825%);stroke-opacity:1;stroke-miterlimit:3.25;" d="M 198.089844 575.273438 L 751.363281 672.910156 " transform="matrix(1,0,0,1,-132,-10)"/>
<path style="fill:none;stroke-width:1.432;stroke-linecap:square;stroke-linejoin:miter;stroke:rgb(33.332825%,33.332825%,33.332825%);stroke-opacity:1;stroke-miterlimit:3.25;" d="M 198.089844 542.726562 L 718.816406 672.910156 " transform="matrix(1,0,0,1,-132,-10)"/>
<path style="fill:none;stroke-width:1.432;stroke-linecap:square;stroke-linejoin:miter;stroke:rgb(33.332825%,33.332825%,33.332825%);stroke-opacity:1;stroke-miterlimit:3.25;" d="M 198.089844 510.183594 L 686.273438 672.910156 " transform="matrix(1,0,0,1,-132,-10)"/>
<path style="fill:none;stroke-width:1.432;stroke-linecap:square;stroke-linejoin:miter;stroke:rgb(33.332825%,33.332825%,33.332825%);stroke-opacity:1;stroke-miterlimit:3.25;" d="M 198.089844 477.636719 L 653.726562 672.910156 " transform="matrix(1,0,0,1,-132,-10)"/>
<path style="fill:none;stroke-width:1.432;stroke-linecap:square;stroke-linejoin:miter;stroke:rgb(33.332825%,33.332825%,33.332825%);stroke-opacity:1;stroke-miterlimit:3.25;" d="M 198.089844 445.089844 L 621.183594 672.910156 " transform="matrix(1,0,0,1,-132,-10)"/>
<path style="fill:none;stroke-width:1.432;stroke-linecap:square;stroke-linejoin:miter;stroke:rgb(33.332825%,33.332825%,33.332825%);stroke-opacity:1;stroke-miterlimit:3.25;" d="M 198.089844 412.546875 L 588.636719 672.910156 " transform="matrix(1,0,0,1,-132,-10)"/>
<path style="fill:none;stroke-width:1.432;stroke-linecap:square;stroke-linejoin:miter;stroke:rgb(33.332825%,33.332825%,33.332825%);stroke-opacity:1;stroke-miterlimit:3.25;" d="M 198.089844 380 L 556.089844 672.910156 " transform="matrix(1,0,0,1,-132,-10)"/>
<path style="fill:none;stroke-width:1.432;stroke-linecap:square;stroke-linejoin:miter;stroke:rgb(33.332825%,33.332825%,33.332825%);stroke-opacity:1;stroke-miterlimit:3.25;" d="M 198.089844 347.453125 L 523.546875 672.910156 " transform="matrix(1,0,0,1,-132,-10)"/>
<path style="fill:none;stroke-width:1.432;stroke-linecap:square;stroke-linejoin:miter;stroke:rgb(33.332825%,33.332825%,33.332825%);stroke-opacity:1;stroke-miterlimit:3.25;" d="M 198.089844 314.910156 L 491 672.910156 " transform="matrix(1,0,0,1,-132,-10)"/>
<path style="fill:none;stroke-width:1.432;stroke-linecap:square;stroke-linejoin:miter;stroke:rgb(33.332825%,33.332825%,33.332825%);stroke-opacity:1;stroke-miterlimit:3.25;" d="M 198.089844 282.363281 L 458.453125 672.910156 " transform="matrix(1,0,0,1,-132,-10)"/>
<path style="fill:none;stroke-width:1.432;stroke-linecap:square;stroke-linejoin:miter;stroke:rgb(33.332825%,33.332825%,33.332825%);stroke-opacity:1;stroke-miterlimit:3.25;" d="M 198.089844 249.816406 L 425.910156 672.910156 " transform="matrix(1,0,0,1,-132,-10)"/>
<path style="fill:none;stroke-width:1.432;stroke-linecap:square;stroke-linejoin:miter;stroke:rgb(33.332825%,33.332825%,33.332825%);stroke-opacity:1;stroke-miterlimit:3.25;" d="M 198.089844 217.273438 L 393.363281 672.910156 " transform="matrix(1,0,0,1,-132,-10)"/>
<path style="fill:none;stroke-width:1.432;stroke-linecap:square;stroke-linejoin:miter;stroke:rgb(33.332825%,33.332825%,33.332825%);stroke-opacity:1;stroke-miterlimit:3.25;" d="M 198.089844 184.726562 L 360.816406 672.910156 " transform="matrix(1,0,0,1,-132,-10)"/>
<path style="fill:none;stroke-width:1.432;stroke-linecap:square;stroke-linejoin:miter;stroke:rgb(33.332825%,33.332825%,33.332825%);stroke-opacity:1;stroke-miterlimit:3.25;" d="M 198.089844 152.183594 L 328.273438 672.910156 " transform="matrix(1,0,0,1,-132,-10)"/>
<path style="fill:none;stroke-width:1.432;stroke-linecap:square;stroke-linejoin:miter;stroke:rgb(33.332825%,33.332825%,33.332825%);stroke-opacity:1;stroke-miterlimit:3.25;" d="M 198.089844 119.636719 L 295.726562 672.910156 " transform="matrix(1,0,0,1,-132,-10)"/>
<path style="fill:none;stroke-width:1.432;stroke-linecap:square;stroke-linejoin:miter;stroke:rgb(33.332825%,33.332825%,33.332825%);stroke-opacity:1;stroke-miterlimit:3.25;" d="M 198.089844 87.089844 L 263.183594 672.910156 " transform="matrix(1,0,0,1,-132,-10)"/>
<path style="fill:none;stroke-width:1.432;stroke-linecap:square;stroke-linejoin:miter;stroke:rgb(33.332825%,33.332825%,33.332825%);stroke-opacity:1;stroke-miterlimit:3.25;" d="M 198.089844 54.546875 L 230.636719 672.910156 " transform="matrix(1,0,0,1,-132,-10)"/>
<path style="fill:none;stroke-width:1.432;stroke-linecap:square;stroke-linejoin:miter;stroke:rgb(33.332825%,33.332825%,33.332825%);stroke-opacity:1;stroke-miterlimit:3.25;" d="M 198.089844 22 L 198.089844 672.910156 " transform="matrix(1,0,0,1,-132,-10)"/>
<path style="fill:none;stroke-width:0.4;stroke-linecap:butt;stroke-linejoin:miter;stroke:rgb(0%,0%,66.665649%);stroke-opacity:1;stroke-miterlimit:3.25;" d="M 198.089844 680.070312 L 198.089844 672.910156 " transform="matrix(1,0,0,1,-132,-10)"/>
<path style="fill:none;stroke-width:0.4;stroke-linecap:butt;stroke-linejoin:miter;stroke:rgb(0%,0%,66.665649%);stroke-opacity:1;stroke-miterlimit:3.25;" d="M 230.636719 680.070312 L 230.636719 672.910156 " transform="matrix(1,0,0,1,-132,-10)"/>
<path style="fill:none;stroke-width:0.4;stroke-linecap:butt;stroke-linejoin:miter;stroke:rgb(0%,0%,66.665649%);stroke-opacity:1;stroke-miterlimit:3.25;" d="M 263.183594 680.070312 L 263.183594 672.910156 " transform="matrix(1,0,0,1,-132,-10)"/>
<path style="fill:none;stroke-width:0.4;stroke-linecap:butt;stroke-linejoin:miter;stroke:rgb(0%,0%,66.665649%);stroke-opacity:1;stroke-miterlimit:3.25;" d="M 295.726562 680.070312 L 295.726562 672.910156 " transform="matrix(1,0,0,1,-132,-10)"/>
<path style="fill:none;stroke-width:0.4;stroke-linecap:butt;stroke-linejoin:miter;stroke:rgb(0%,0%,66.665649%);stroke-opacity:1;stroke-miterlimit:3.25;" d="M 328.273438 680.070312 L 328.273438 672.910156 " transform="matrix(1,0,0,1,-132,-10)"/>
<path style="fill:none;stroke-width:0.4;stroke-linecap:butt;stroke-linejoin:miter;stroke:rgb(0%,0%,66.665649%);stroke-opacity:1;stroke-miterlimit:3.25;" d="M 360.816406 680.070312 L 360.816406 672.910156 " transform="matrix(1,0,0,1,-132,-10)"/>
<path style="fill:none;stroke-width:0.4;stroke-linecap:butt;stroke-linejoin:miter;stroke:rgb(0%,0%,66.665649%);stroke-opacity:1;stroke-miterlimit:3.25;" d="M 393.363281 680.070312 L 393.363281 672.910156 " transform="matrix(1,0,0,1,-132,-10)"/>
<path style="fill:none;stroke-width:0.4;stroke-linecap:butt;stroke-linejoin:miter;stroke:rgb(0%,0%,66.665649%);stroke-opacity:1;stroke-miterlimit:3.25;" d="M 425.910156 680.070312 L 425.910156 672.910156 " transform="matrix(1,0,0,1,-132,-10)"/>
<path style="fill:none;stroke-width:0.4;stroke-linecap:butt;stroke-linejoin:miter;stroke:rgb(0%,0%,66.665649%);stroke-opacity:1;stroke-miterlimit:3.25;" d="M 458.453125 680.070312 L 458.453125 672.910156 " transform="matrix(1,0,0,1,-132,-10)"/>
<path style="fill:none;stroke-width:0.4;stroke-linecap:butt;stroke-linejoin:miter;stroke:rgb(0%,0%,66.665649%);stroke-opacity:1;stroke-miterlimit:3.25;" d="M 491 680.070312 L 491 672.910156 " transform="matrix(1,0,0,1,-132,-10)"/>
<path style="fill:none;stroke-width:0.4;stroke-linecap:butt;stroke-linejoin:miter;stroke:rgb(0%,0%,66.665649%);stroke-opacity:1;stroke-miterlimit:3.25;" d="M 523.546875 680.070312 L 523.546875 672.910156 " transform="matrix(1,0,0,1,-132,-10)"/>
<path style="fill:none;stroke-width:0.4;stroke-linecap:butt;stroke-linejoin:miter;stroke:rgb(0%,0%,66.665649%);stroke-opacity:1;stroke-miterlimit:3.25;" d="M 556.089844 680.070312 L 556.089844 672.910156 " transform="matrix(1,0,0,1,-132,-10)"/>
<path style="fill:none;stroke-width:0.4;stroke-linecap:butt;stroke-linejoin:miter;stroke:rgb(0%,0%,66.665649%);stroke-opacity:1;stroke-miterlimit:3.25;" d="M 588.636719 680.070312 L 588.636719 672.910156 " transform="matrix(1,0,0,1,-132,-10)"/>
<path style="fill:none;stroke-width:0.4;stroke-linecap:butt;stroke-linejoin:miter;stroke:rgb(0%,0%,66.665649%);stroke-opacity:1;stroke-miterlimit:3.25;" d="M 621.183594 680.070312 L 621.183594 672.910156 " transform="matrix(1,0,0,1,-132,-10)"/>
<path style="fill:none;stroke-width:0.4;stroke-linecap:butt;stroke-linejoin:miter;stroke:rgb(0%,0%,66.665649%);stroke-opacity:1;stroke-miterlimit:3.25;" d="M 653.726562 680.070312 L 653.726562 672.910156 " transform="matrix(1,0,0,1,-132,-10)"/>
<path style="fill:none;stroke-width:0.4;stroke-linecap:butt;stroke-linejoin:miter;stroke:rgb(0%,0%,66.665649%);stroke-opacity:1;stroke-miterlimit:3.25;" d="M 686.273438 680.070312 L 686.273438 672.910156 " transform="matrix(1,0,0,1,-132,-10)"/>
<path style="fill:none;stroke-width:0.4;stroke-linecap:butt;stroke-linejoin:miter;stroke:rgb(0%,0%,66.665649%);stroke-opacity:1;stroke-miterlimit:3.25;" d="M 718.816406 680.070312 L 718.816406 672.910156 " transform="matrix(1,0,0,1,-132,-10)"/>
<path style="fill:none;stroke-width:0.4;stroke-linecap:butt;stroke-linejoin:miter;stroke:rgb(0%,0%,66.665649%);stroke-opacity:1;stroke-miterlimit:3.25;" d="M 751.363281 680.070312 L 751.363281 672.910156 " transform="matrix(1,0,0,1,-132,-10)"/>
<path style="fill:none;stroke-width:0.4;stroke-linecap:butt;stroke-linejoin:miter;stroke:rgb(0%,0%,66.665649%);stroke-opacity:1;stroke-miterlimit:3.25;" d="M 783.910156 680.070312 L 783.910156 672.910156 " transform="matrix(1,0,0,1,-132,-10)"/>
<path style="fill:none;stroke-width:0.4;stroke-linecap:butt;stroke-linejoin:miter;stroke:rgb(0%,0%,66.665649%);stroke-opacity:1;stroke-miterlimit:3.25;" d="M 816.453125 680.070312 L 816.453125 672.910156 " transform="matrix(1,0,0,1,-132,-10)"/>
<path style="fill:none;stroke-width:0.4;stroke-linecap:butt;stroke-linejoin:miter;stroke:rgb(0%,0%,66.665649%);stroke-opacity:1;stroke-miterlimit:3.25;" d="M 849 680.070312 L 849 672.910156 " transform="matrix(1,0,0,1,-132,-10)"/>
<path style="fill:none;stroke-width:0.4;stroke-linecap:butt;stroke-linejoin:miter;stroke:rgb(39.99939%,39.99939%,39.99939%);stroke-opacity:1;stroke-miterlimit:3.25;" d="M 133 672.910156 L 849 672.910156 " transform="matrix(1,0,0,1,-132,-10)"/>
<path style="fill:none;stroke-width:0.4;stroke-linecap:butt;stroke-linejoin:miter;stroke:rgb(0%,0%,66.665649%);stroke-opacity:1;stroke-miterlimit:3.25;" d="M 190.929688 672.910156 L 198.089844 672.910156 " transform="matrix(1,0,0,1,-132,-10)"/>
<path style="fill:none;stroke-width:0.4;stroke-linecap:butt;stroke-linejoin:miter;stroke:rgb(0%,0%,66.665649%);stroke-opacity:1;stroke-miterlimit:3.25;" d="M 190.929688 640.363281 L 198.089844 640.363281 " transform="matrix(1,0,0,1,-132,-10)"/>
<path style="fill:none;stroke-width:0.4;stroke-linecap:butt;stroke-linejoin:miter;stroke:rgb(0%,0%,66.665649%);stroke-opacity:1;stroke-miterlimit:3.25;" d="M 190.929688 607.816406 L 198.089844 607.816406 " transform="matrix(1,0,0,1,-132,-10)"/>
<path style="fill:none;stroke-width:0.4;stroke-linecap:butt;stroke-linejoin:miter;stroke:rgb(0%,0%,66.665649%);stroke-opacity:1;stroke-miterlimit:3.25;" d="M 190.929688 575.273438 L 198.089844 575.273438 " transform="matrix(1,0,0,1,-132,-10)"/>
<path style="fill:none;stroke-width:0.4;stroke-linecap:butt;stroke-linejoin:miter;stroke:rgb(0%,0%,66.665649%);stroke-opacity:1;stroke-miterlimit:3.25;" d="M 190.929688 542.726562 L 198.089844 542.726562 " transform="matrix(1,0,0,1,-132,-10)"/>
<path style="fill:none;stroke-width:0.4;stroke-linecap:butt;stroke-linejoin:miter;stroke:rgb(0%,0%,66.665649%);stroke-opacity:1;stroke-miterlimit:3.25;" d="M 190.929688 510.183594 L 198.089844 510.183594 " transform="matrix(1,0,0,1,-132,-10)"/>
<path style="fill:none;stroke-width:0.4;stroke-linecap:butt;stroke-linejoin:miter;stroke:rgb(0%,0%,66.665649%);stroke-opacity:1;stroke-miterlimit:3.25;" d="M 190.929688 477.636719 L 198.089844 477.636719 " transform="matrix(1,0,0,1,-132,-10)"/>
<path style="fill:none;stroke-width:0.4;stroke-linecap:butt;stroke-linejoin:miter;stroke:rgb(0%,0%,66.665649%);stroke-opacity:1;stroke-miterlimit:3.25;" d="M 190.929688 445.089844 L 198.089844 445.089844 " transform="matrix(1,0,0,1,-132,-10)"/>
<path style="fill:none;stroke-width:0.4;stroke-linecap:butt;stroke-linejoin:miter;stroke:rgb(0%,0%,66.665649%);stroke-opacity:1;stroke-miterlimit:3.25;" d="M 190.929688 412.546875 L 198.089844 412.546875 " transform="matrix(1,0,0,1,-132,-10)"/>
<path style="fill:none;stroke-width:0.4;stroke-linecap:butt;stroke-linejoin:miter;stroke:rgb(0%,0%,66.665649%);stroke-opacity:1;stroke-miterlimit:3.25;" d="M 190.929688 380 L 198.089844 380 " transform="matrix(1,0,0,1,-132,-10)"/>
<path style="fill:none;stroke-width:0.4;stroke-linecap:butt;stroke-linejoin:miter;stroke:rgb(0%,0%,66.665649%);stroke-opacity:1;stroke-miterlimit:3.25;" d="M 190.929688 347.453125 L 198.089844 347.453125 " transform="matrix(1,0,0,1,-132,-10)"/>
<path style="fill:none;stroke-width:0.4;stroke-linecap:butt;stroke-linejoin:miter;stroke:rgb(0%,0%,66.665649%);stroke-opacity:1;stroke-miterlimit:3.25;" d="M 190.929688 314.910156 L 198.089844 314.910156 " transform="matrix(1,0,0,1,-132,-10)"/>
<path style="fill:none;stroke-width:0.4;stroke-linecap:butt;stroke-linejoin:miter;stroke:rgb(0%,0%,66.665649%);stroke-opacity:1;stroke-miterlimit:3.25;" d="M 190.929688 282.363281 L 198.089844 282.363281 " transform="matrix(1,0,0,1,-132,-10)"/>
<path style="fill:none;stroke-width:0.4;stroke-linecap:butt;stroke-linejoin:miter;stroke:rgb(0%,0%,66.665649%);stroke-opacity:1;stroke-miterlimit:3.25;" d="M 190.929688 249.816406 L 198.089844 249.816406 " transform="matrix(1,0,0,1,-132,-10)"/>
<path style="fill:none;stroke-width:0.4;stroke-linecap:butt;stroke-linejoin:miter;stroke:rgb(0%,0%,66.665649%);stroke-opacity:1;stroke-miterlimit:3.25;" d="M 190.929688 217.273438 L 198.089844 217.273438 " transform="matrix(1,0,0,1,-132,-10)"/>
<path style="fill:none;stroke-width:0.4;stroke-linecap:butt;stroke-linejoin:miter;stroke:rgb(0%,0%,66.665649%);stroke-opacity:1;stroke-miterlimit:3.25;" d="M 190.929688 184.726562 L 198.089844 184.726562 " transform="matrix(1,0,0,1,-132,-10)"/>
<path style="fill:none;stroke-width:0.4;stroke-linecap:butt;stroke-linejoin:miter;stroke:rgb(0%,0%,66.665649%);stroke-opacity:1;stroke-miterlimit:3.25;" d="M 190.929688 152.183594 L 198.089844 152.183594 " transform="matrix(1,0,0,1,-132,-10)"/>
<path style="fill:none;stroke-width:0.4;stroke-linecap:butt;stroke-linejoin:miter;stroke:rgb(0%,0%,66.665649%);stroke-opacity:1;stroke-miterlimit:3.25;" d="M 190.929688 119.636719 L 198.089844 119.636719 " transform="matrix(1,0,0,1,-132,-10)"/>
<path style="fill:none;stroke-width:0.4;stroke-linecap:butt;stroke-linejoin:miter;stroke:rgb(0%,0%,66.665649%);stroke-opacity:1;stroke-miterlimit:3.25;" d="M 190.929688 87.089844 L 198.089844 87.089844 " transform="matrix(1,0,0,1,-132,-10)"/>
<path style="fill:none;stroke-width:0.4;stroke-linecap:butt;stroke-linejoin:miter;stroke:rgb(0%,0%,66.665649%);stroke-opacity:1;stroke-miterlimit:3.25;" d="M 190.929688 54.546875 L 198.089844 54.546875 " transform="matrix(1,0,0,1,-132,-10)"/>
<path style="fill:none;stroke-width:0.4;stroke-linecap:butt;stroke-linejoin:miter;stroke:rgb(0%,0%,66.665649%);stroke-opacity:1;stroke-miterlimit:3.25;" d="M 190.929688 22 L 198.089844 22 " transform="matrix(1,0,0,1,-132,-10)"/>
<path style="fill:none;stroke-width:0.4;stroke-linecap:butt;stroke-linejoin:miter;stroke:rgb(39.99939%,39.99939%,39.99939%);stroke-opacity:1;stroke-miterlimit:3.25;" d="M 198.089844 738 L 198.089844 22 " transform="matrix(1,0,0,1,-132,-10)"/>
</g>
</svg>
