<?xml version="1.0" encoding="UTF-8"?>
<svg xmlns="http://www.w3.org/2000/svg" xmlns:xlink="http://www.w3.org/1999/xlink" width="1087pt" height="1097pt" viewBox="0 0 1087 1097" version="1.1">
<g id="surface44">
<path style="fill:none;stroke-width:2.165922;stroke-linecap:square;stroke-linejoin:miter;stroke:rgb(10.217285%,78.317261%,75.761414%);stroke-opacity:1;stroke-miterlimit:3.25;" d="M 134 1093.960938 L 1216.960938 552.480469 " transform="matrix(1,0,0,1,-132,-10)"/>
<path style="fill:none;stroke-width:2.165922;stroke-linecap:square;stroke-linejoin:miter;stroke:rgb(12.091064%,71.063232%,82.286072%);stroke-opacity:1;stroke-miterlimit:3.25;" d="M 134 1066.410156 L 1216.960938 553.429688 " transform="matrix(1,0,0,1,-132,-10)"/>
<path style="fill:none;stroke-width:2.165922;stroke-linecap:square;stroke-linejoin:miter;stroke:rgb(15.83252%,63.13324%,86.419678%);stroke-opacity:1;stroke-miterlimit:3.25;" d="M 134 1037.808594 L 1216.960938 556.492188 " transform="matrix(1,0,0,1,-132,-10)"/>
<path style="fill:none;stroke-width:2.165922;stroke-linecap:square;stroke-linejoin:miter;stroke:rgb(21.159363%,55.296326%,88.233948%);stroke-opacity:1;stroke-miterlimit:3.25;" d="M 134 1007.960938 L 1216.960938 562.035156 " transform="matrix(1,0,0,1,-132,-10)"/>
<path style="fill:none;stroke-width:2.165922;stroke-linecap:square;stroke-linejoin:miter;stroke:rgb(26.869202%,47.2229%,87.449646%);stroke-opacity:1;stroke-miterlimit:3.25;" d="M 134 976.640625 L 1216.960938 570.53125 " transform="matrix(1,0,0,1,-132,-10)"/>
<path style="fill:none;stroke-width:2.165922;stroke-linecap:square;stroke-linejoin:miter;stroke:rgb(32.577515%,39.970398%,84.283447%);stroke-opacity:1;stroke-miterlimit:3.25;" d="M 134 943.550781 L 1216.960938 582.5625 " transform="matrix(1,0,0,1,-132,-10)"/>
<path style="fill:none;stroke-width:2.165922;stroke-linecap:square;stroke-linejoin:miter;stroke:rgb(37.641907%,33.337402%,78.562927%);stroke-opacity:1;stroke-miterlimit:3.25;" d="M 134 908.308594 L 1216.960938 598.894531 " transform="matrix(1,0,0,1,-132,-10)"/>
<path style="fill:none;stroke-width:2.165922;stroke-linecap:square;stroke-linejoin:miter;stroke:rgb(41.567993%,27.763367%,71.305847%);stroke-opacity:1;stroke-miterlimit:3.25;" d="M 134 870.425781 L 1216.960938 620.511719 " transform="matrix(1,0,0,1,-132,-10)"/>
<path style="fill:none;stroke-width:2.165922;stroke-linecap:square;stroke-linejoin:miter;stroke:rgb(48.149109%,24.705505%,68.214417%);stroke-opacity:1;stroke-miterlimit:3.25;" d="M 134 829.238281 L 1216.960938 648.742188 " transform="matrix(1,0,0,1,-132,-10)"/>
<path style="fill:none;stroke-width:2.165922;stroke-linecap:square;stroke-linejoin:miter;stroke:rgb(58.959961%,23.921204%,70.195007%);stroke-opacity:1;stroke-miterlimit:3.25;" d="M 134 783.839844 L 1216.960938 685.390625 " transform="matrix(1,0,0,1,-132,-10)"/>
<path style="fill:none;stroke-width:2.165922;stroke-linecap:square;stroke-linejoin:miter;stroke:rgb(69.770813%,23.529053%,69.812012%);stroke-opacity:1;stroke-miterlimit:3.25;" d="M 134 732.972656 L 1216.960938 732.972656 " transform="matrix(1,0,0,1,-132,-10)"/>
<path style="fill:none;stroke-width:2.165922;stroke-linecap:square;stroke-linejoin:miter;stroke:rgb(79.998779%,23.921204%,66.641235%);stroke-opacity:1;stroke-miterlimit:3.25;" d="M 134 674.816406 L 1216.960938 795.144531 " transform="matrix(1,0,0,1,-132,-10)"/>
<path style="fill:none;stroke-width:2.165922;stroke-linecap:square;stroke-linejoin:miter;stroke:rgb(89.031982%,25.495911%,61.943054%);stroke-opacity:1;stroke-miterlimit:3.25;" d="M 134 606.628906 L 1216.960938 877.367188 " transform="matrix(1,0,0,1,-132,-10)"/>
<path style="fill:none;stroke-width:2.165922;stroke-linecap:square;stroke-linejoin:miter;stroke:rgb(96.714783%,27.864075%,55.047607%);stroke-opacity:1;stroke-miterlimit:3.25;" d="M 134 524.117188 L 1216.960938 988.242188 " transform="matrix(1,0,0,1,-132,-10)"/>
<path style="fill:none;stroke-width:2.165922;stroke-linecap:square;stroke-linejoin:miter;stroke:rgb(99.998474%,31.782532%,47.396851%);stroke-opacity:1;stroke-miterlimit:3.25;" d="M 134 420.117188 L 1144.761719 1093.960938 " transform="matrix(1,0,0,1,-132,-10)"/>
<path style="fill:none;stroke-width:2.165922;stroke-linecap:square;stroke-linejoin:miter;stroke:rgb(99.998474%,36.77063%,38.899231%);stroke-opacity:1;stroke-miterlimit:3.25;" d="M 134 281.742188 L 946.222656 1093.960938 " transform="matrix(1,0,0,1,-132,-10)"/>
<path style="fill:none;stroke-width:2.165922;stroke-linecap:square;stroke-linejoin:miter;stroke:rgb(99.998474%,43.280029%,31.253052%);stroke-opacity:1;stroke-miterlimit:3.25;" d="M 134 83.199219 L 807.84375 1093.960938 " transform="matrix(1,0,0,1,-132,-10)"/>
<path style="fill:none;stroke-width:2.165922;stroke-linecap:square;stroke-linejoin:miter;stroke:rgb(99.998474%,50.582886%,24.710083%);stroke-opacity:1;stroke-miterlimit:3.25;" d="M 703.84375 1093.960938 L 239.71875 11 " transform="matrix(1,0,0,1,-132,-10)"/>
<path style="fill:none;stroke-width:2.165922;stroke-linecap:square;stroke-linejoin:miter;stroke:rgb(98.428345%,59.022522%,19.975281%);stroke-opacity:1;stroke-miterlimit:3.25;" d="M 621.332031 1093.960938 L 350.59375 11 " transform="matrix(1,0,0,1,-132,-10)"/>
<path style="fill:none;stroke-width:2.165922;stroke-linecap:square;stroke-linejoin:miter;stroke:rgb(92.153931%,67.456055%,18.03894%);stroke-opacity:1;stroke-miterlimit:3.25;" d="M 553.144531 1093.960938 L 432.816406 11 " transform="matrix(1,0,0,1,-132,-10)"/>
<path style="fill:none;stroke-width:2.165922;stroke-linecap:square;stroke-linejoin:miter;stroke:rgb(85.099792%,75.891113%,19.215393%);stroke-opacity:1;stroke-miterlimit:3.25;" d="M 494.988281 1093.960938 L 494.988281 11 " transform="matrix(1,0,0,1,-132,-10)"/>
<path style="fill:none;stroke-width:2.165922;stroke-linecap:square;stroke-linejoin:miter;stroke:rgb(77.9953%,83.988953%,23.535156%);stroke-opacity:1;stroke-miterlimit:3.25;" d="M 444.121094 1093.960938 L 542.570312 11 " transform="matrix(1,0,0,1,-132,-10)"/>
<path style="fill:none;stroke-width:2.165922;stroke-linecap:square;stroke-linejoin:miter;stroke:rgb(71.476746%,90.85083%,30.891418%);stroke-opacity:1;stroke-miterlimit:3.25;" d="M 398.722656 1093.960938 L 579.21875 11 " transform="matrix(1,0,0,1,-132,-10)"/>
<path style="fill:none;stroke-width:2.165922;stroke-linecap:square;stroke-linejoin:miter;stroke:rgb(62.632751%,94.900513%,34.526062%);stroke-opacity:1;stroke-miterlimit:3.25;" d="M 357.535156 1093.960938 L 607.449219 11 " transform="matrix(1,0,0,1,-132,-10)"/>
<path style="fill:none;stroke-width:2.165922;stroke-linecap:square;stroke-linejoin:miter;stroke:rgb(49.862671%,96.061707%,34.509277%);stroke-opacity:1;stroke-miterlimit:3.25;" d="M 319.652344 1093.960938 L 629.066406 11 " transform="matrix(1,0,0,1,-132,-10)"/>
<path style="fill:none;stroke-width:2.165922;stroke-linecap:square;stroke-linejoin:miter;stroke:rgb(37.875366%,96.861267%,37.649536%);stroke-opacity:1;stroke-miterlimit:3.25;" d="M 284.410156 1093.960938 L 645.398438 11 " transform="matrix(1,0,0,1,-132,-10)"/>
<path style="fill:none;stroke-width:2.165922;stroke-linecap:square;stroke-linejoin:miter;stroke:rgb(27.456665%,95.690918%,43.52417%);stroke-opacity:1;stroke-miterlimit:3.25;" d="M 251.320312 1093.960938 L 657.429688 11 " transform="matrix(1,0,0,1,-132,-10)"/>
<path style="fill:none;stroke-width:2.165922;stroke-linecap:square;stroke-linejoin:miter;stroke:rgb(19.216919%,93.748474%,50.779724%);stroke-opacity:1;stroke-miterlimit:3.25;" d="M 220 1093.960938 L 665.925781 11 " transform="matrix(1,0,0,1,-132,-10)"/>
<path style="fill:none;stroke-width:2.165922;stroke-linecap:square;stroke-linejoin:miter;stroke:rgb(13.328552%,89.797974%,59.248352%);stroke-opacity:1;stroke-miterlimit:3.25;" d="M 190.152344 1093.960938 L 671.46875 11 " transform="matrix(1,0,0,1,-132,-10)"/>
<path style="fill:none;stroke-width:2.165922;stroke-linecap:square;stroke-linejoin:miter;stroke:rgb(10.314941%,84.709167%,68.133545%);stroke-opacity:1;stroke-miterlimit:3.25;" d="M 161.550781 1093.960938 L 674.53125 11 " transform="matrix(1,0,0,1,-132,-10)"/>
<path style="fill:none;stroke-width:2.165922;stroke-linecap:square;stroke-linejoin:miter;stroke:rgb(10.217285%,78.317261%,75.761414%);stroke-opacity:1;stroke-miterlimit:3.25;" d="M 134 1093.960938 L 675.480469 11 " transform="matrix(1,0,0,1,-132,-10)"/>
<path style="fill:none;stroke-width:2.165922;stroke-linecap:square;stroke-linejoin:miter;stroke:rgb(50%,50%,50%);stroke-opacity:1;stroke-miterlimit:3.25;" d="M 494.988281 732.972656 L 675.480469 732.972656 L 675.480469 552.480469 L 494.988281 552.480469 L 494.988281 732.972656 " transform="matrix(1,0,0,1,-132,-10)"/>
<path style="fill:none;stroke-width:0.4;stroke-linecap:butt;stroke-linejoin:miter;stroke:rgb(0%,0%,66.665649%);stroke-opacity:1;stroke-miterlimit:3.25;" d="M 134 743.804688 L 134 732.972656 " transform="matrix(1,0,0,1,-132,-10)"/>
<path style="fill:none;stroke-width:0.4;stroke-linecap:butt;stroke-linejoin:miter;stroke:rgb(0%,0%,66.665649%);stroke-opacity:1;stroke-miterlimit:3.25;" d="M 170.097656 743.804688 L 170.097656 732.972656 " transform="matrix(1,0,0,1,-132,-10)"/>
<path style="fill:none;stroke-width:0.4;stroke-linecap:butt;stroke-linejoin:miter;stroke:rgb(0%,0%,66.665649%);stroke-opacity:1;stroke-miterlimit:3.25;" d="M 206.199219 743.804688 L 206.199219 732.972656 " transform="matrix(1,0,0,1,-132,-10)"/>
<path style="fill:none;stroke-width:0.4;stroke-linecap:butt;stroke-linejoin:miter;stroke:rgb(0%,0%,66.665649%);stroke-opacity:1;stroke-miterlimit:3.25;" d="M 242.296875 743.804688 L 242.296875 732.972656 " transform="matrix(1,0,0,1,-132,-10)"/>
<path style="fill:none;stroke-width:0.4;stroke-linecap:butt;stroke-linejoin:miter;stroke:rgb(0%,0%,66.665649%);stroke-opacity:1;stroke-miterlimit:3.25;" d="M 278.394531 743.804688 L 278.394531 732.972656 " transform="matrix(1,0,0,1,-132,-10)"/>
<path style="fill:none;stroke-width:0.4;stroke-linecap:butt;stroke-linejoin:miter;stroke:rgb(0%,0%,66.665649%);stroke-opacity:1;stroke-miterlimit:3.25;" d="M 314.492188 743.804688 L 314.492188 732.972656 " transform="matrix(1,0,0,1,-132,-10)"/>
<path style="fill:none;stroke-width:0.4;stroke-linecap:butt;stroke-linejoin:miter;stroke:rgb(0%,0%,66.665649%);stroke-opacity:1;stroke-miterlimit:3.25;" d="M 350.59375 743.804688 L 350.59375 732.972656 " transform="matrix(1,0,0,1,-132,-10)"/>
<path style="fill:none;stroke-width:0.4;stroke-linecap:butt;stroke-linejoin:miter;stroke:rgb(0%,0%,66.665649%);stroke-opacity:1;stroke-miterlimit:3.25;" d="M 386.691406 743.804688 L 386.691406 732.972656 " transform="matrix(1,0,0,1,-132,-10)"/>
<path style="fill:none;stroke-width:0.4;stroke-linecap:butt;stroke-linejoin:miter;stroke:rgb(0%,0%,66.665649%);stroke-opacity:1;stroke-miterlimit:3.25;" d="M 422.789062 743.804688 L 422.789062 732.972656 " transform="matrix(1,0,0,1,-132,-10)"/>
<path style="fill:none;stroke-width:0.4;stroke-linecap:butt;stroke-linejoin:miter;stroke:rgb(0%,0%,66.665649%);stroke-opacity:1;stroke-miterlimit:3.25;" d="M 458.886719 743.804688 L 458.886719 732.972656 " transform="matrix(1,0,0,1,-132,-10)"/>
<path style="fill:none;stroke-width:0.4;stroke-linecap:butt;stroke-linejoin:miter;stroke:rgb(0%,0%,66.665649%);stroke-opacity:1;stroke-miterlimit:3.25;" d="M 494.988281 743.804688 L 494.988281 732.972656 " transform="matrix(1,0,0,1,-132,-10)"/>
<path style="fill:none;stroke-width:0.4;stroke-linecap:butt;stroke-linejoin:miter;stroke:rgb(0%,0%,66.665649%);stroke-opacity:1;stroke-miterlimit:3.25;" d="M 531.085938 743.804688 L 531.085938 732.972656 " transform="matrix(1,0,0,1,-132,-10)"/>
<path style="fill:none;stroke-width:0.4;stroke-linecap:butt;stroke-linejoin:miter;stroke:rgb(0%,0%,66.665649%);stroke-opacity:1;stroke-miterlimit:3.25;" d="M 567.183594 743.804688 L 567.183594 732.972656 " transform="matrix(1,0,0,1,-132,-10)"/>
<path style="fill:none;stroke-width:0.4;stroke-linecap:butt;stroke-linejoin:miter;stroke:rgb(0%,0%,66.665649%);stroke-opacity:1;stroke-miterlimit:3.25;" d="M 603.28125 743.804688 L 603.28125 732.972656 " transform="matrix(1,0,0,1,-132,-10)"/>
<path style="fill:none;stroke-width:0.4;stroke-linecap:butt;stroke-linejoin:miter;stroke:rgb(0%,0%,66.665649%);stroke-opacity:1;stroke-miterlimit:3.25;" d="M 639.382812 743.804688 L 639.382812 732.972656 " transform="matrix(1,0,0,1,-132,-10)"/>
<path style="fill:none;stroke-width:0.4;stroke-linecap:butt;stroke-linejoin:miter;stroke:rgb(0%,0%,66.665649%);stroke-opacity:1;stroke-miterlimit:3.25;" d="M 675.480469 743.804688 L 675.480469 732.972656 " transform="matrix(1,0,0,1,-132,-10)"/>
<path style="fill:none;stroke-width:0.4;stroke-linecap:butt;stroke-linejoin:miter;stroke:rgb(0%,0%,66.665649%);stroke-opacity:1;stroke-miterlimit:3.25;" d="M 711.578125 743.804688 L 711.578125 732.972656 " transform="matrix(1,0,0,1,-132,-10)"/>
<path style="fill:none;stroke-width:0.4;stroke-linecap:butt;stroke-linejoin:miter;stroke:rgb(0%,0%,66.665649%);stroke-opacity:1;stroke-miterlimit:3.25;" d="M 747.679688 743.804688 L 747.679688 732.972656 " transform="matrix(1,0,0,1,-132,-10)"/>
<path style="fill:none;stroke-width:0.4;stroke-linecap:butt;stroke-linejoin:miter;stroke:rgb(0%,0%,66.665649%);stroke-opacity:1;stroke-miterlimit:3.25;" d="M 783.777344 743.804688 L 783.777344 732.972656 " transform="matrix(1,0,0,1,-132,-10)"/>
<path style="fill:none;stroke-width:0.4;stroke-linecap:butt;stroke-linejoin:miter;stroke:rgb(0%,0%,66.665649%);stroke-opacity:1;stroke-miterlimit:3.25;" d="M 819.875 743.804688 L 819.875 732.972656 " transform="matrix(1,0,0,1,-132,-10)"/>
<path style="fill:none;stroke-width:0.4;stroke-linecap:butt;stroke-linejoin:miter;stroke:rgb(0%,0%,66.665649%);stroke-opacity:1;stroke-miterlimit:3.25;" d="M 855.972656 743.804688 L 855.972656 732.972656 " transform="matrix(1,0,0,1,-132,-10)"/>
<path style="fill:none;stroke-width:0.4;stroke-linecap:butt;stroke-linejoin:miter;stroke:rgb(0%,0%,66.665649%);stroke-opacity:1;stroke-miterlimit:3.25;" d="M 892.074219 743.804688 L 892.074219 732.972656 " transform="matrix(1,0,0,1,-132,-10)"/>
<path style="fill:none;stroke-width:0.4;stroke-linecap:butt;stroke-linejoin:miter;stroke:rgb(0%,0%,66.665649%);stroke-opacity:1;stroke-miterlimit:3.25;" d="M 928.171875 743.804688 L 928.171875 732.972656 " transform="matrix(1,0,0,1,-132,-10)"/>
<path style="fill:none;stroke-width:0.4;stroke-linecap:butt;stroke-linejoin:miter;stroke:rgb(0%,0%,66.665649%);stroke-opacity:1;stroke-miterlimit:3.25;" d="M 964.269531 743.804688 L 964.269531 732.972656 " transform="matrix(1,0,0,1,-132,-10)"/>
<path style="fill:none;stroke-width:0.4;stroke-linecap:butt;stroke-linejoin:miter;stroke:rgb(0%,0%,66.665649%);stroke-opacity:1;stroke-miterlimit:3.25;" d="M 1000.367188 743.804688 L 1000.367188 732.972656 " transform="matrix(1,0,0,1,-132,-10)"/>
<path style="fill:none;stroke-width:0.4;stroke-linecap:butt;stroke-linejoin:miter;stroke:rgb(0%,0%,66.665649%);stroke-opacity:1;stroke-miterlimit:3.25;" d="M 1036.46875 743.804688 L 1036.46875 732.972656 " transform="matrix(1,0,0,1,-132,-10)"/>
<path style="fill:none;stroke-width:0.4;stroke-linecap:butt;stroke-linejoin:miter;stroke:rgb(39.99939%,39.99939%,39.99939%);stroke-opacity:1;stroke-miterlimit:3.25;" d="M 134 732.972656 L 1216.960938 732.972656 " transform="matrix(1,0,0,1,-132,-10)"/>
<path style="fill:none;stroke-width:0.4;stroke-linecap:butt;stroke-linejoin:miter;stroke:rgb(0%,0%,66.665649%);stroke-opacity:1;stroke-miterlimit:3.25;" d="M 484.15625 1093.960938 L 494.988281 1093.960938 " transform="matrix(1,0,0,1,-132,-10)"/>
<path style="fill:none;stroke-width:0.4;stroke-linecap:butt;stroke-linejoin:miter;stroke:rgb(0%,0%,66.665649%);stroke-opacity:1;stroke-miterlimit:3.25;" d="M 484.15625 1057.863281 L 494.988281 1057.863281 " transform="matrix(1,0,0,1,-132,-10)"/>
<path style="fill:none;stroke-width:0.4;stroke-linecap:butt;stroke-linejoin:miter;stroke:rgb(0%,0%,66.665649%);stroke-opacity:1;stroke-miterlimit:3.25;" d="M 484.15625 1021.761719 L 494.988281 1021.761719 " transform="matrix(1,0,0,1,-132,-10)"/>
<path style="fill:none;stroke-width:0.4;stroke-linecap:butt;stroke-linejoin:miter;stroke:rgb(0%,0%,66.665649%);stroke-opacity:1;stroke-miterlimit:3.25;" d="M 484.15625 985.664062 L 494.988281 985.664062 " transform="matrix(1,0,0,1,-132,-10)"/>
<path style="fill:none;stroke-width:0.4;stroke-linecap:butt;stroke-linejoin:miter;stroke:rgb(0%,0%,66.665649%);stroke-opacity:1;stroke-miterlimit:3.25;" d="M 484.15625 949.566406 L 494.988281 949.566406 " transform="matrix(1,0,0,1,-132,-10)"/>
<path style="fill:none;stroke-width:0.4;stroke-linecap:butt;stroke-linejoin:miter;stroke:rgb(0%,0%,66.665649%);stroke-opacity:1;stroke-miterlimit:3.25;" d="M 484.15625 913.46875 L 494.988281 913.46875 " transform="matrix(1,0,0,1,-132,-10)"/>
<path style="fill:none;stroke-width:0.4;stroke-linecap:butt;stroke-linejoin:miter;stroke:rgb(0%,0%,66.665649%);stroke-opacity:1;stroke-miterlimit:3.25;" d="M 484.15625 877.367188 L 494.988281 877.367188 " transform="matrix(1,0,0,1,-132,-10)"/>
<path style="fill:none;stroke-width:0.4;stroke-linecap:butt;stroke-linejoin:miter;stroke:rgb(0%,0%,66.665649%);stroke-opacity:1;stroke-miterlimit:3.25;" d="M 484.15625 841.269531 L 494.988281 841.269531 " transform="matrix(1,0,0,1,-132,-10)"/>
<path style="fill:none;stroke-width:0.4;stroke-linecap:butt;stroke-linejoin:miter;stroke:rgb(0%,0%,66.665649%);stroke-opacity:1;stroke-miterlimit:3.25;" d="M 484.15625 805.171875 L 494.988281 805.171875 " transform="matrix(1,0,0,1,-132,-10)"/>
<path style="fill:none;stroke-width:0.4;stroke-linecap:butt;stroke-linejoin:miter;stroke:rgb(0%,0%,66.665649%);stroke-opacity:1;stroke-miterlimit:3.25;" d="M 484.15625 769.074219 L 494.988281 769.074219 " transform="matrix(1,0,0,1,-132,-10)"/>
<path style="fill:none;stroke-width:0.4;stroke-linecap:butt;stroke-linejoin:miter;stroke:rgb(0%,0%,66.665649%);stroke-opacity:1;stroke-miterlimit:3.25;" d="M 484.15625 732.972656 L 494.988281 732.972656 " transform="matrix(1,0,0,1,-132,-10)"/>
<path style="fill:none;stroke-width:0.4;stroke-linecap:butt;stroke-linejoin:miter;stroke:rgb(0%,0%,66.665649%);stroke-opacity:1;stroke-miterlimit:3.25;" d="M 484.15625 696.875 L 494.988281 696.875 " transform="matrix(1,0,0,1,-132,-10)"/>
<path style="fill:none;stroke-width:0.4;stroke-linecap:butt;stroke-linejoin:miter;stroke:rgb(0%,0%,66.665649%);stroke-opacity:1;stroke-miterlimit:3.25;" d="M 484.15625 660.777344 L 494.988281 660.777344 " transform="matrix(1,0,0,1,-132,-10)"/>
<path style="fill:none;stroke-width:0.4;stroke-linecap:butt;stroke-linejoin:miter;stroke:rgb(0%,0%,66.665649%);stroke-opacity:1;stroke-miterlimit:3.25;" d="M 484.15625 624.679688 L 494.988281 624.679688 " transform="matrix(1,0,0,1,-132,-10)"/>
<path style="fill:none;stroke-width:0.4;stroke-linecap:butt;stroke-linejoin:miter;stroke:rgb(0%,0%,66.665649%);stroke-opacity:1;stroke-miterlimit:3.25;" d="M 484.15625 588.578125 L 494.988281 588.578125 " transform="matrix(1,0,0,1,-132,-10)"/>
<path style="fill:none;stroke-width:0.4;stroke-linecap:butt;stroke-linejoin:miter;stroke:rgb(0%,0%,66.665649%);stroke-opacity:1;stroke-miterlimit:3.25;" d="M 484.15625 552.480469 L 494.988281 552.480469 " transform="matrix(1,0,0,1,-132,-10)"/>
<path style="fill:none;stroke-width:0.4;stroke-linecap:butt;stroke-linejoin:miter;stroke:rgb(0%,0%,66.665649%);stroke-opacity:1;stroke-miterlimit:3.25;" d="M 484.15625 516.382812 L 494.988281 516.382812 " transform="matrix(1,0,0,1,-132,-10)"/>
<path style="fill:none;stroke-width:0.4;stroke-linecap:butt;stroke-linejoin:miter;stroke:rgb(0%,0%,66.665649%);stroke-opacity:1;stroke-miterlimit:3.25;" d="M 484.15625 480.28125 L 494.988281 480.28125 " transform="matrix(1,0,0,1,-132,-10)"/>
<path style="fill:none;stroke-width:0.4;stroke-linecap:butt;stroke-linejoin:miter;stroke:rgb(0%,0%,66.665649%);stroke-opacity:1;stroke-miterlimit:3.25;" d="M 484.15625 444.183594 L 494.988281 444.183594 " transform="matrix(1,0,0,1,-132,-10)"/>
<path style="fill:none;stroke-width:0.4;stroke-linecap:butt;stroke-linejoin:miter;stroke:rgb(0%,0%,66.665649%);stroke-opacity:1;stroke-miterlimit:3.25;" d="M 484.15625 408.085938 L 494.988281 408.085938 " transform="matrix(1,0,0,1,-132,-10)"/>
<path style="fill:none;stroke-width:0.4;stroke-linecap:butt;stroke-linejoin:miter;stroke:rgb(0%,0%,66.665649%);stroke-opacity:1;stroke-miterlimit:3.25;" d="M 484.15625 371.988281 L 494.988281 371.988281 " transform="matrix(1,0,0,1,-132,-10)"/>
<path style="fill:none;stroke-width:0.4;stroke-linecap:butt;stroke-linejoin:miter;stroke:rgb(0%,0%,66.665649%);stroke-opacity:1;stroke-miterlimit:3.25;" d="M 484.15625 335.886719 L 494.988281 335.886719 " transform="matrix(1,0,0,1,-132,-10)"/>
<path style="fill:none;stroke-width:0.4;stroke-linecap:butt;stroke-linejoin:miter;stroke:rgb(0%,0%,66.665649%);stroke-opacity:1;stroke-miterlimit:3.25;" d="M 484.15625 299.789062 L 494.988281 299.789062 " transform="matrix(1,0,0,1,-132,-10)"/>
<path style="fill:none;stroke-width:0.4;stroke-linecap:butt;stroke-linejoin:miter;stroke:rgb(0%,0%,66.665649%);stroke-opacity:1;stroke-miterlimit:3.25;" d="M 484.15625 263.691406 L 494.988281 263.691406 " transform="matrix(1,0,0,1,-132,-10)"/>
<path style="fill:none;stroke-width:0.4;stroke-linecap:butt;stroke-linejoin:miter;stroke:rgb(0%,0%,66.665649%);stroke-opacity:1;stroke-miterlimit:3.25;" d="M 484.15625 227.59375 L 494.988281 227.59375 " transform="matrix(1,0,0,1,-132,-10)"/>
<path style="fill:none;stroke-width:0.4;stroke-linecap:butt;stroke-linejoin:miter;stroke:rgb(0%,0%,66.665649%);stroke-opacity:1;stroke-miterlimit:3.25;" d="M 484.15625 191.492188 L 494.988281 191.492188 " transform="matrix(1,0,0,1,-132,-10)"/>
<path style="fill:none;stroke-width:0.4;stroke-linecap:butt;stroke-linejoin:miter;stroke:rgb(39.99939%,39.99939%,39.99939%);stroke-opacity:1;stroke-miterlimit:3.25;" d="M 494.988281 1093.960938 L 494.988281 11 " transform="matrix(1,0,0,1,-132,-10)"/>
</g>
</svg>
