<?xml version="1.0" encoding="UTF-8"?>
<svg xmlns="http://www.w3.org/2000/svg" xmlns:xlink="http://www.w3.org/1999/xlink" width="1087pt" height="1097pt" viewBox="0 0 1087 1097" version="1.1">
<g id="surface32">
<path style="fill:none;stroke-width:2.165922;stroke-linecap:square;stroke-linejoin:miter;stroke:rgb(50%,50%,50%);stroke-opacity:1;stroke-miterlimit:3.25;" d="M 1216.960938 552.480469 L 134 1093.960938 " transform="matrix(1,0,0,1,-132,-10)"/>
<path style="fill:none;stroke-width:2.165922;stroke-linecap:square;stroke-linejoin:miter;stroke:rgb(50%,50%,50%);stroke-opacity:1;stroke-miterlimit:3.25;" d="M 1180.863281 570.53125 L 152.050781 1057.863281 " transform="matrix(1,0,0,1,-132,-10)"/>
<path style="fill:none;stroke-width:2.165922;stroke-linecap:square;stroke-linejoin:miter;stroke:rgb(50%,50%,50%);stroke-opacity:1;stroke-miterlimit:3.25;" d="M 1144.761719 588.578125 L 170.097656 1021.761719 " transform="matrix(1,0,0,1,-132,-10)"/>
<path style="fill:none;stroke-width:2.165922;stroke-linecap:square;stroke-linejoin:miter;stroke:rgb(50%,50%,50%);stroke-opacity:1;stroke-miterlimit:3.25;" d="M 1108.664062 606.628906 L 188.148438 985.664062 " transform="matrix(1,0,0,1,-132,-10)"/>
<path style="fill:none;stroke-width:2.165922;stroke-linecap:square;stroke-linejoin:miter;stroke:rgb(50%,50%,50%);stroke-opacity:1;stroke-miterlimit:3.25;" d="M 1072.566406 624.679688 L 206.199219 949.566406 " transform="matrix(1,0,0,1,-132,-10)"/>
<path style="fill:none;stroke-width:2.165922;stroke-linecap:square;stroke-linejoin:miter;stroke:rgb(50%,50%,50%);stroke-opacity:1;stroke-miterlimit:3.25;" d="M 1036.46875 642.726562 L 224.246094 913.46875 " transform="matrix(1,0,0,1,-132,-10)"/>
<path style="fill:none;stroke-width:2.165922;stroke-linecap:square;stroke-linejoin:miter;stroke:rgb(50%,50%,50%);stroke-opacity:1;stroke-miterlimit:3.25;" d="M 1000.367188 660.777344 L 242.296875 877.367188 " transform="matrix(1,0,0,1,-132,-10)"/>
<path style="fill:none;stroke-width:2.165922;stroke-linecap:square;stroke-linejoin:miter;stroke:rgb(50%,50%,50%);stroke-opacity:1;stroke-miterlimit:3.25;" d="M 964.269531 678.824219 L 260.34375 841.269531 " transform="matrix(1,0,0,1,-132,-10)"/>
<path style="fill:none;stroke-width:2.165922;stroke-linecap:square;stroke-linejoin:miter;stroke:rgb(50%,50%,50%);stroke-opacity:1;stroke-miterlimit:3.25;" d="M 928.171875 696.875 L 278.394531 805.171875 " transform="matrix(1,0,0,1,-132,-10)"/>
<path style="fill:none;stroke-width:2.165922;stroke-linecap:square;stroke-linejoin:miter;stroke:rgb(50%,50%,50%);stroke-opacity:1;stroke-miterlimit:3.25;" d="M 892.074219 714.925781 L 296.445312 769.074219 " transform="matrix(1,0,0,1,-132,-10)"/>
<path style="fill:none;stroke-width:2.165922;stroke-linecap:square;stroke-linejoin:miter;stroke:rgb(50%,50%,50%);stroke-opacity:1;stroke-miterlimit:3.25;" d="M 855.972656 732.972656 L 314.492188 732.972656 " transform="matrix(1,0,0,1,-132,-10)"/>
<path style="fill:none;stroke-width:2.165922;stroke-linecap:square;stroke-linejoin:miter;stroke:rgb(50%,50%,50%);stroke-opacity:1;stroke-miterlimit:3.25;" d="M 819.875 751.023438 L 332.542969 696.875 " transform="matrix(1,0,0,1,-132,-10)"/>
<path style="fill:none;stroke-width:2.165922;stroke-linecap:square;stroke-linejoin:miter;stroke:rgb(50%,50%,50%);stroke-opacity:1;stroke-miterlimit:3.25;" d="M 783.777344 769.074219 L 350.59375 660.777344 " transform="matrix(1,0,0,1,-132,-10)"/>
<path style="fill:none;stroke-width:2.165922;stroke-linecap:square;stroke-linejoin:miter;stroke:rgb(50%,50%,50%);stroke-opacity:1;stroke-miterlimit:3.25;" d="M 747.679688 787.121094 L 368.640625 624.679688 " transform="matrix(1,0,0,1,-132,-10)"/>
<path style="fill:none;stroke-width:2.165922;stroke-linecap:square;stroke-linejoin:miter;stroke:rgb(50%,50%,50%);stroke-opacity:1;stroke-miterlimit:3.25;" d="M 711.578125 805.171875 L 386.691406 588.578125 " transform="matrix(1,0,0,1,-132,-10)"/>
<path style="fill:none;stroke-width:2.165922;stroke-linecap:square;stroke-linejoin:miter;stroke:rgb(50%,50%,50%);stroke-opacity:1;stroke-miterlimit:3.25;" d="M 675.480469 823.21875 L 404.742188 552.480469 " transform="matrix(1,0,0,1,-132,-10)"/>
<path style="fill:none;stroke-width:2.165922;stroke-linecap:square;stroke-linejoin:miter;stroke:rgb(50%,50%,50%);stroke-opacity:1;stroke-miterlimit:3.25;" d="M 639.382812 841.269531 L 422.789062 516.382812 " transform="matrix(1,0,0,1,-132,-10)"/>
<path style="fill:none;stroke-width:2.165922;stroke-linecap:square;stroke-linejoin:miter;stroke:rgb(50%,50%,50%);stroke-opacity:1;stroke-miterlimit:3.25;" d="M 603.28125 859.320312 L 440.839844 480.28125 " transform="matrix(1,0,0,1,-132,-10)"/>
<path style="fill:none;stroke-width:2.165922;stroke-linecap:square;stroke-linejoin:miter;stroke:rgb(50%,50%,50%);stroke-opacity:1;stroke-miterlimit:3.25;" d="M 567.183594 877.367188 L 458.886719 444.183594 " transform="matrix(1,0,0,1,-132,-10)"/>
<path style="fill:none;stroke-width:2.165922;stroke-linecap:square;stroke-linejoin:miter;stroke:rgb(50%,50%,50%);stroke-opacity:1;stroke-miterlimit:3.25;" d="M 531.085938 895.417969 L 476.9375 408.085938 " transform="matrix(1,0,0,1,-132,-10)"/>
<path style="fill:none;stroke-width:2.165922;stroke-linecap:square;stroke-linejoin:miter;stroke:rgb(50%,50%,50%);stroke-opacity:1;stroke-miterlimit:3.25;" d="M 494.988281 913.46875 L 494.988281 371.988281 " transform="matrix(1,0,0,1,-132,-10)"/>
<path style="fill:none;stroke-width:2.165922;stroke-linecap:square;stroke-linejoin:miter;stroke:rgb(50%,50%,50%);stroke-opacity:1;stroke-miterlimit:3.25;" d="M 458.886719 931.515625 L 513.035156 335.886719 " transform="matrix(1,0,0,1,-132,-10)"/>
<path style="fill:none;stroke-width:2.165922;stroke-linecap:square;stroke-linejoin:miter;stroke:rgb(50%,50%,50%);stroke-opacity:1;stroke-miterlimit:3.25;" d="M 422.789062 949.566406 L 531.085938 299.789062 " transform="matrix(1,0,0,1,-132,-10)"/>
<path style="fill:none;stroke-width:2.165922;stroke-linecap:square;stroke-linejoin:miter;stroke:rgb(50%,50%,50%);stroke-opacity:1;stroke-miterlimit:3.25;" d="M 386.691406 967.617188 L 549.136719 263.691406 " transform="matrix(1,0,0,1,-132,-10)"/>
<path style="fill:none;stroke-width:2.165922;stroke-linecap:square;stroke-linejoin:miter;stroke:rgb(50%,50%,50%);stroke-opacity:1;stroke-miterlimit:3.25;" d="M 350.59375 985.664062 L 567.183594 227.59375 " transform="matrix(1,0,0,1,-132,-10)"/>
<path style="fill:none;stroke-width:2.165922;stroke-linecap:square;stroke-linejoin:miter;stroke:rgb(50%,50%,50%);stroke-opacity:1;stroke-miterlimit:3.25;" d="M 314.492188 1003.714844 L 585.234375 191.492188 " transform="matrix(1,0,0,1,-132,-10)"/>
<path style="fill:none;stroke-width:2.165922;stroke-linecap:square;stroke-linejoin:miter;stroke:rgb(50%,50%,50%);stroke-opacity:1;stroke-miterlimit:3.25;" d="M 278.394531 1021.761719 L 603.28125 155.394531 " transform="matrix(1,0,0,1,-132,-10)"/>
<path style="fill:none;stroke-width:2.165922;stroke-linecap:square;stroke-linejoin:miter;stroke:rgb(50%,50%,50%);stroke-opacity:1;stroke-miterlimit:3.25;" d="M 242.296875 1039.8125 L 621.332031 119.296875 " transform="matrix(1,0,0,1,-132,-10)"/>
<path style="fill:none;stroke-width:2.165922;stroke-linecap:square;stroke-linejoin:miter;stroke:rgb(50%,50%,50%);stroke-opacity:1;stroke-miterlimit:3.25;" d="M 206.199219 1057.863281 L 639.382812 83.199219 " transform="matrix(1,0,0,1,-132,-10)"/>
<path style="fill:none;stroke-width:2.165922;stroke-linecap:square;stroke-linejoin:miter;stroke:rgb(50%,50%,50%);stroke-opacity:1;stroke-miterlimit:3.25;" d="M 170.097656 1075.910156 L 657.429688 47.097656 " transform="matrix(1,0,0,1,-132,-10)"/>
<path style="fill:none;stroke-width:2.165922;stroke-linecap:square;stroke-linejoin:miter;stroke:rgb(50%,50%,50%);stroke-opacity:1;stroke-miterlimit:3.25;" d="M 134 1093.960938 L 675.480469 11 " transform="matrix(1,0,0,1,-132,-10)"/>
<path style="fill:none;stroke-width:2.165922;stroke-linecap:square;stroke-linejoin:miter;stroke:rgb(0%,66.665649%,0%);stroke-opacity:1;stroke-miterlimit:3.25;" d="M 494.988281 732.972656 L 675.480469 732.972656 L 675.480469 552.480469 L 494.988281 552.480469 L 494.988281 732.972656 " transform="matrix(1,0,0,1,-132,-10)"/>
<path style="fill:none;stroke-width:0.4;stroke-linecap:butt;stroke-linejoin:miter;stroke:rgb(0%,0%,66.665649%);stroke-opacity:1;stroke-miterlimit:3.25;" d="M 134 743.804688 L 134 732.972656 " transform="matrix(1,0,0,1,-132,-10)"/>
<path style="fill:none;stroke-width:0.4;stroke-linecap:butt;stroke-linejoin:miter;stroke:rgb(0%,0%,66.665649%);stroke-opacity:1;stroke-miterlimit:3.25;" d="M 170.097656 743.804688 L 170.097656 732.972656 " transform="matrix(1,0,0,1,-132,-10)"/>
<path style="fill:none;stroke-width:0.4;stroke-linecap:butt;stroke-linejoin:miter;stroke:rgb(0%,0%,66.665649%);stroke-opacity:1;stroke-miterlimit:3.25;" d="M 206.199219 743.804688 L 206.199219 732.972656 " transform="matrix(1,0,0,1,-132,-10)"/>
<path style="fill:none;stroke-width:0.4;stroke-linecap:butt;stroke-linejoin:miter;stroke:rgb(0%,0%,66.665649%);stroke-opacity:1;stroke-miterlimit:3.25;" d="M 242.296875 743.804688 L 242.296875 732.972656 " transform="matrix(1,0,0,1,-132,-10)"/>
<path style="fill:none;stroke-width:0.4;stroke-linecap:butt;stroke-linejoin:miter;stroke:rgb(0%,0%,66.665649%);stroke-opacity:1;stroke-miterlimit:3.25;" d="M 278.394531 743.804688 L 278.394531 732.972656 " transform="matrix(1,0,0,1,-132,-10)"/>
<path style="fill:none;stroke-width:0.4;stroke-linecap:butt;stroke-linejoin:miter;stroke:rgb(0%,0%,66.665649%);stroke-opacity:1;stroke-miterlimit:3.25;" d="M 314.492188 743.804688 L 314.492188 732.972656 " transform="matrix(1,0,0,1,-132,-10)"/>
<path style="fill:none;stroke-width:0.4;stroke-linecap:butt;stroke-linejoin:miter;stroke:rgb(0%,0%,66.665649%);stroke-opacity:1;stroke-miterlimit:3.25;" d="M 350.59375 743.804688 L 350.59375 732.972656 " transform="matrix(1,0,0,1,-132,-10)"/>
<path style="fill:none;stroke-width:0.4;stroke-linecap:butt;stroke-linejoin:miter;stroke:rgb(0%,0%,66.665649%);stroke-opacity:1;stroke-miterlimit:3.25;" d="M 386.691406 743.804688 L 386.691406 732.972656 " transform="matrix(1,0,0,1,-132,-10)"/>
<path style="fill:none;stroke-width:0.4;stroke-linecap:butt;stroke-linejoin:miter;stroke:rgb(0%,0%,66.665649%);stroke-opacity:1;stroke-miterlimit:3.25;" d="M 422.789062 743.804688 L 422.789062 732.972656 " transform="matrix(1,0,0,1,-132,-10)"/>
<path style="fill:none;stroke-width:0.4;stroke-linecap:butt;stroke-linejoin:miter;stroke:rgb(0%,0%,66.665649%);stroke-opacity:1;stroke-miterlimit:3.25;" d="M 458.886719 743.804688 L 458.886719 732.972656 " transform="matrix(1,0,0,1,-132,-10)"/>
<path style="fill:none;stroke-width:0.4;stroke-linecap:butt;stroke-linejoin:miter;stroke:rgb(0%,0%,66.665649%);stroke-opacity:1;stroke-miterlimit:3.25;" d="M 494.988281 743.804688 L 494.988281 732.972656 " transform="matrix(1,0,0,1,-132,-10)"/>
<path style="fill:none;stroke-width:0.4;stroke-linecap:butt;stroke-linejoin:miter;stroke:rgb(0%,0%,66.665649%);stroke-opacity:1;stroke-miterlimit:3.25;" d="M 531.085938 743.804688 L 531.085938 732.972656 " transform="matrix(1,0,0,1,-132,-10)"/>
<path style="fill:none;stroke-width:0.4;stroke-linecap:butt;stroke-linejoin:miter;stroke:rgb(0%,0%,66.665649%);stroke-opacity:1;stroke-miterlimit:3.25;" d="M 567.183594 743.804688 L 567.183594 732.972656 " transform="matrix(1,0,0,1,-132,-10)"/>
<path style="fill:none;stroke-width:0.4;stroke-linecap:butt;stroke-linejoin:miter;stroke:rgb(0%,0%,66.665649%);stroke-opacity:1;stroke-miterlimit:3.25;" d="M 603.28125 743.804688 L 603.28125 732.972656 " transform="matrix(1,0,0,1,-132,-10)"/>
<path style="fill:none;stroke-width:0.4;stroke-linecap:butt;stroke-linejoin:miter;stroke:rgb(0%,0%,66.665649%);stroke-opacity:1;stroke-miterlimit:3.25;" d="M 639.382812 743.804688 L 639.382812 732.972656 " transform="matrix(1,0,0,1,-132,-10)"/>
<path style="fill:none;stroke-width:0.4;stroke-linecap:butt;stroke-linejoin:miter;stroke:rgb(0%,0%,66.665649%);stroke-opacity:1;stroke-miterlimit:3.25;" d="M 675.480469 743.804688 L 675.480469 732.972656 " transform="matrix(1,0,0,1,-132,-10)"/>
<path style="fill:none;stroke-width:0.4;stroke-linecap:butt;stroke-linejoin:miter;stroke:rgb(0%,0%,66.665649%);stroke-opacity:1;stroke-miterlimit:3.25;" d="M 711.578125 743.804688 L 711.578125 732.972656 " transform="matrix(1,0,0,1,-132,-10)"/>
<path style="fill:none;stroke-width:0.4;stroke-linecap:butt;stroke-linejoin:miter;stroke:rgb(0%,0%,66.665649%);stroke-opacity:1;stroke-miterlimit:3.25;" d="M 747.679688 743.804688 L 747.679688 732.972656 " transform="matrix(1,0,0,1,-132,-10)"/>
<path style="fill:none;stroke-width:0.4;stroke-linecap:butt;stroke-linejoin:miter;stroke:rgb(0%,0%,66.665649%);stroke-opacity:1;stroke-miterlimit:3.25;" d="M 783.777344 743.804688 L 783.777344 732.972656 " transform="matrix(1,0,0,1,-132,-10)"/>
<path style="fill:none;stroke-width:0.4;stroke-linecap:butt;stroke-linejoin:miter;stroke:rgb(0%,0%,66.665649%);stroke-opacity:1;stroke-miterlimit:3.25;" d="M 819.875 743.804688 L 819.875 732.972656 " transform="matrix(1,0,0,1,-132,-10)"/>
<path style="fill:none;stroke-width:0.4;stroke-linecap:butt;stroke-linejoin:miter;stroke:rgb(0%,0%,66.665649%);stroke-opacity:1;stroke-miterlimit:3.25;" d="M 855.972656 743.804688 L 855.972656 732.972656 " transform="matrix(1,0,0,1,-132,-10)"/>
<path style="fill:none;stroke-width:0.4;stroke-linecap:butt;stroke-linejoin:miter;stroke:rgb(0%,0%,66.665649%);stroke-opacity:1;stroke-miterlimit:3.25;" d="M 892.074219 743.804688 L 892.074219 732.972656 " transform="matrix(1,0,0,1,-132,-10)"/>
<path style="fill:none;stroke-width:0.4;stroke-linecap:butt;stroke-linejoin:miter;stroke:rgb(0%,0%,66.665649%);stroke-opacity:1;stroke-miterlimit:3.25;" d="M 928.171875 743.804688 L 928.171875 732.972656 " transform="matrix(1,0,0,1,-132,-10)"/>
<path style="fill:none;stroke-width:0.4;stroke-linecap:butt;stroke-linejoin:miter;stroke:rgb(0%,0%,66.665649%);stroke-opacity:1;stroke-miterlimit:3.25;" d="M 964.269531 743.804688 L 964.269531 732.972656 " transform="matrix(1,0,0,1,-132,-10)"/>
<path style="fill:none;stroke-width:0.4;stroke-linecap:butt;stroke-linejoin:miter;stroke:rgb(0%,0%,66.665649%);stroke-opacity:1;stroke-miterlimit:3.25;" d="M 1000.367188 743.804688 L 1000.367188 732.972656 " transform="matrix(1,0,0,1,-132,-10)"/>
<path style="fill:none;stroke-width:0.4;stroke-linecap:butt;stroke-linejoin:miter;stroke:rgb(0%,0%,66.665649%);stroke-opacity:1;stroke-miterlimit:3.25;" d="M 1036.46875 743.804688 L 1036.46875 732.972656 " transform="matrix(1,0,0,1,-132,-10)"/>
<path style="fill:none;stroke-width:0.4;stroke-linecap:butt;stroke-linejoin:miter;stroke:rgb(39.99939%,39.99939%,39.99939%);stroke-opacity:1;stroke-miterlimit:3.25;" d="M 134 732.972656 L 1216.960938 732.972656 " transform="matrix(1,0,0,1,-132,-10)"/>
<path style="fill:none;stroke-width:0.4;stroke-linecap:butt;stroke-linejoin:miter;stroke:rgb(0%,0%,66.665649%);stroke-opacity:1;stroke-miterlimit:3.25;" d="M 484.15625 1093.960938 L 494.988281 1093.960938 " transform="matrix(1,0,0,1,-132,-10)"/>
<path style="fill:none;stroke-width:0.4;stroke-linecap:butt;stroke-linejoin:miter;stroke:rgb(0%,0%,66.665649%);stroke-opacity:1;stroke-miterlimit:3.25;" d="M 484.15625 1057.863281 L 494.988281 1057.863281 " transform="matrix(1,0,0,1,-132,-10)"/>
<path style="fill:none;stroke-width:0.4;stroke-linecap:butt;stroke-linejoin:miter;stroke:rgb(0%,0%,66.665649%);stroke-opacity:1;stroke-miterlimit:3.25;" d="M 484.15625 1021.761719 L 494.988281 1021.761719 " transform="matrix(1,0,0,1,-132,-10)"/>
<path style="fill:none;stroke-width:0.4;stroke-linecap:butt;stroke-linejoin:miter;stroke:rgb(0%,0%,66.665649%);stroke-opacity:1;stroke-miterlimit:3.25;" d="M 484.15625 985.664062 L 494.988281 985.664062 " transform="matrix(1,0,0,1,-132,-10)"/>
<path style="fill:none;stroke-width:0.4;stroke-linecap:butt;stroke-linejoin:miter;stroke:rgb(0%,0%,66.665649%);stroke-opacity:1;stroke-miterlimit:3.25;" d="M 484.15625 949.566406 L 494.988281 949.566406 " transform="matrix(1,0,0,1,-132,-10)"/>
<path style="fill:none;stroke-width:0.4;stroke-linecap:butt;stroke-linejoin:miter;stroke:rgb(0%,0%,66.665649%);stroke-opacity:1;stroke-miterlimit:3.25;" d="M 484.15625 913.46875 L 494.988281 913.46875 " transform="matrix(1,0,0,1,-132,-10)"/>
<path style="fill:none;stroke-width:0.4;stroke-linecap:butt;stroke-linejoin:miter;stroke:rgb(0%,0%,66.665649%);stroke-opacity:1;stroke-miterlimit:3.25;" d="M 484.15625 877.367188 L 494.988281 877.367188 " transform="matrix(1,0,0,1,-132,-10)"/>
<path style="fill:none;stroke-width:0.4;stroke-linecap:butt;stroke-linejoin:miter;stroke:rgb(0%,0%,66.665649%);stroke-opacity:1;stroke-miterlimit:3.25;" d="M 484.15625 841.269531 L 494.988281 841.269531 " transform="matrix(1,0,0,1,-132,-10)"/>
<path style="fill:none;stroke-width:0.4;stroke-linecap:butt;stroke-linejoin:miter;stroke:rgb(0%,0%,66.665649%);stroke-opacity:1;stroke-miterlimit:3.25;" d="M 484.15625 805.171875 L 494.988281 805.171875 " transform="matrix(1,0,0,1,-132,-10)"/>
<path style="fill:none;stroke-width:0.4;stroke-linecap:butt;stroke-linejoin:miter;stroke:rgb(0%,0%,66.665649%);stroke-opacity:1;stroke-miterlimit:3.25;" d="M 484.15625 769.074219 L 494.988281 769.074219 " transform="matrix(1,0,0,1,-132,-10)"/>
<path style="fill:none;stroke-width:0.4;stroke-linecap:butt;stroke-linejoin:miter;stroke:rgb(0%,0%,66.665649%);stroke-opacity:1;stroke-miterlimit:3.25;" d="M 484.15625 732.972656 L 494.988281 732.972656 " transform="matrix(1,0,0,1,-132,-10)"/>
<path style="fill:none;stroke-width:0.4;stroke-linecap:butt;stroke-linejoin:miter;stroke:rgb(0%,0%,66.665649%);stroke-opacity:1;stroke-miterlimit:3.25;" d="M 484.15625 696.875 L 494.988281 696.875 " transform="matrix(1,0,0,1,-132,-10)"/>
<path style="fill:none;stroke-width:0.4;stroke-linecap:butt;stroke-linejoin:miter;stroke:rgb(0%,0%,66.665649%);stroke-opacity:1;stroke-miterlimit:3.25;" d="M 484.15625 660.777344 L 494.988281 660.777344 " transform="matrix(1,0,0,1,-132,-10)"/>
<path style="fill:none;stroke-width:0.4;stroke-linecap:butt;stroke-linejoin:miter;stroke:rgb(0%,0%,66.665649%);stroke-opacity:1;stroke-miterlimit:3.25;" d="M 484.15625 624.679688 L 494.988281 624.679688 " transform="matrix(1,0,0,1,-132,-10)"/>
<path style="fill:none;stroke-width:0.4;stroke-linecap:butt;stroke-linejoin:miter;stroke:rgb(0%,0%,66.665649%);stroke-opacity:1;stroke-miterlimit:3.25;" d="M 484.15625 588.578125 L 494.988281 588.578125 " transform="matrix(1,0,0,1,-132,-10)"/>
<path style="fill:none;stroke-width:0.4;stroke-linecap:butt;stroke-linejoin:miter;stroke:rgb(0%,0%,66.665649%);stroke-opacity:1;stroke-miterlimit:3.25;" d="M 484.15625 552.480469 L 494.988281 552.480469 " transform="matrix(1,0,0,1,-132,-10)"/>
<path style="fill:none;stroke-width:0.4;stroke-linecap:butt;stroke-linejoin:miter;stroke:rgb(0%,0%,66.665649%);stroke-opacity:1;stroke-miterlimit:3.25;" d="M 484.15625 516.382812 L 494.988281 516.382812 " transform="matrix(1,0,0,1,-132,-10)"/>
<path style="fill:none;stroke-width:0.4;stroke-linecap:butt;stroke-linejoin:miter;stroke:rgb(0%,0%,66.665649%);stroke-opacity:1;stroke-miterlimit:3.25;" d="M 484.15625 480.28125 L 494.988281 480.28125 " transform="matrix(1,0,0,1,-132,-10)"/>
<path style="fill:none;stroke-width:0.4;stroke-linecap:butt;stroke-linejoin:miter;stroke:rgb(0%,0%,66.665649%);stroke-opacity:1;stroke-miterlimit:3.25;" d="M 484.15625 444.183594 L 494.988281 444.183594 " transform="matrix(1,0,0,1,-132,-10)"/>
<path style="fill:none;stroke-width:0.4;stroke-linecap:butt;stroke-linejoin:miter;stroke:rgb(0%,0%,66.665649%);stroke-opacity:1;stroke-miterlimit:3.25;" d="M 484.15625 408.085938 L 494.988281 408.085938 " transform="matrix(1,0,0,1,-132,-10)"/>
<path style="fill:none;stroke-width:0.4;stroke-linecap:butt;stroke-linejoin:miter;stroke:rgb(0%,0%,66.665649%);stroke-opacity:1;stroke-miterlimit:3.25;" d="M 484.15625 371.988281 L 494.988281 371.988281 " transform="matrix(1,0,0,1,-132,-10)"/>
<path style="fill:none;stroke-width:0.4;stroke-linecap:butt;stroke-linejoin:miter;stroke:rgb(0%,0%,66.665649%);stroke-opacity:1;stroke-miterlimit:3.25;" d="M 484.15625 335.886719 L 494.988281 335.886719 " transform="matrix(1,0,0,1,-132,-10)"/>
<path style="fill:none;stroke-width:0.4;stroke-linecap:butt;stroke-linejoin:miter;stroke:rgb(0%,0%,66.665649%);stroke-opacity:1;stroke-miterlimit:3.25;" d="M 484.15625 299.789062 L 494.988281 299.789062 " transform="matrix(1,0,0,1,-132,-10)"/>
<path style="fill:none;stroke-width:0.4;stroke-linecap:butt;stroke-linejoin:miter;stroke:rgb(0%,0%,66.665649%);stroke-opacity:1;stroke-miterlimit:3.25;" d="M 484.15625 263.691406 L 494.988281 263.691406 " transform="matrix(1,0,0,1,-132,-10)"/>
<path style="fill:none;stroke-width:0.4;stroke-linecap:butt;stroke-linejoin:miter;stroke:rgb(0%,0%,66.665649%);stroke-opacity:1;stroke-miterlimit:3.25;" d="M 484.15625 227.59375 L 494.988281 227.59375 " transform="matrix(1,0,0,1,-132,-10)"/>
<path style="fill:none;stroke-width:0.4;stroke-linecap:butt;stroke-linejoin:miter;stroke:rgb(0%,0%,66.665649%);stroke-opacity:1;stroke-miterlimit:3.25;" d="M 484.15625 191.492188 L 494.988281 191.492188 " transform="matrix(1,0,0,1,-132,-10)"/>
<path style="fill:none;stroke-width:0.4;stroke-linecap:butt;stroke-linejoin:miter;stroke:rgb(39.99939%,39.99939%,39.99939%);stroke-opacity:1;stroke-miterlimit:3.25;" d="M 494.988281 1093.960938 L 494.988281 11 " transform="matrix(1,0,0,1,-132,-10)"/>
</g>
</svg>
